# 3ds Max Wavefront OBJ Exporter v0.97b - (c)2007 guruware
# File Created: 11.02.2018 19:20:26

mtllib cube_grass.mtl

#
# object Box001
#

v  -1.5000 0.0000 1.5000
v  -1.5000 0.0000 -1.5000
v  1.5000 0.0000 -1.5000
v  1.5000 0.0000 1.5000
v  -1.5000 3.0000 1.5000
v  1.5000 3.0000 1.5000
v  1.5000 3.0000 -1.5000
v  -1.5000 3.0000 -1.5000
# 8 vertices

vn -0.5774 -0.5774 0.5774
vn -0.5774 -0.5774 -0.5774
vn 0.5774 -0.5774 -0.5774
vn 0.5774 -0.5774 0.5774
vn -0.5774 0.5774 0.5774
vn 0.5774 0.5774 0.5774
vn 0.5774 0.5774 -0.5774
vn -0.5774 0.5774 -0.5774
# 8 vertex normals

vt 0.9800 0.5094 0.0000
vt 0.9800 0.9800 0.0000
vt 0.5094 0.9800 0.0000
vt 0.5094 0.5094 0.0000
vt 0.0200 0.0200 0.0000
vt 0.4906 0.0200 0.0000
vt 0.4906 0.4906 0.0000
vt 0.0200 0.4906 0.0000
vt 0.0200 0.5094 0.0000
vt 0.4906 0.5094 0.0000
vt 0.4906 0.9800 0.0000
vt 0.0200 0.9800 0.0000
vt 0.5094 0.0200 0.0000
vt 0.9800 0.0200 0.0000
vt 0.9800 0.4906 0.0000
vt 0.5094 0.4906 0.0000
# 16 texture coords

o Box001
g Box001
usemtl Material__26
s 2
f 1/1/1 2/2/2 3/3/3 4/4/4 
s 4
f 5/5/5 6/6/6 7/7/7 8/8/8 
s 8
f 1/9/1 4/10/4 6/11/6 5/12/5 
s 16
f 4/13/4 3/14/3 7/15/7 6/16/6 
s 32
f 3/9/3 2/10/2 8/11/8 7/12/7 
s 64
f 2/13/2 1/14/1 5/15/5 8/16/8 
# 6 polygons

