# 3ds Max Wavefront OBJ Exporter v0.97b - (c)2007 guruware
# File Created: 22.02.2018 17:16:22

mtllib cube_lava.mtl

#
# object Box001
#

v  -0.5000 0.0000 0.5000
v  -0.5000 0.0000 -0.5000
v  0.5000 0.0000 -0.5000
v  0.5000 0.0000 0.5000
v  -0.5000 0.5000 0.5000
v  0.5000 0.5000 0.5000
v  0.5000 0.5000 -0.5000
v  -0.5000 0.5000 -0.5000
# 8 vertices

vn -0.5774 -0.5774 0.5774
vn -0.5774 -0.5774 -0.5774
vn 0.5774 -0.5774 -0.5774
vn 0.5774 -0.5774 0.5774
vn -0.5774 0.5774 0.5774
vn 0.5774 0.5774 0.5774
vn 0.5774 0.5774 -0.5774
vn -0.5774 0.5774 -0.5774
# 8 vertex normals

vt 0.4909 0.0452 0.0000
vt 0.4909 0.4949 0.0000
vt 0.0412 0.4949 0.0000
vt 0.0412 0.0452 0.0000
vt 0.0412 0.5206 0.0000
vt 0.4909 0.5206 0.0000
vt 0.4909 0.9702 0.0000
vt 0.0412 0.9702 0.0000
vt 0.5301 0.2505 0.0000
vt 0.9797 0.2505 0.0000
vt 0.9797 0.7001 0.0000
vt 0.5301 0.7001 0.0000
# 12 texture coords

o Box001
g Box001
usemtl Material__26
s 2
f 1/1/1 2/2/2 3/3/3 4/4/4 
s 4
f 5/5/5 6/6/6 7/7/7 8/8/8 
s 8
f 1/9/1 4/10/4 6/11/6 5/12/5 
s 16
f 4/9/4 3/10/3 7/11/7 6/12/6 
s 32
f 3/9/3 2/10/2 8/11/8 7/12/7 
s 64
f 2/9/2 1/10/1 5/11/5 8/12/8 
# 6 polygons

